<?xml version="1.0" standalone="no"?>
<!DOCTYPE svg PUBLIC "-//W3C//DTD SVG 20010904//EN"
 "http://www.w3.org/TR/2001/REC-SVG-20010904/DTD/svg10.dtd">
<svg version="1.0" xmlns="http://www.w3.org/2000/svg"
 width="260.000000pt" height="260.000000pt" viewBox="0 0 260.000000 260.000000"
 preserveAspectRatio="xMidYMid meet">
<metadata>
Created by potrace 1.14, written by Peter Selinger 2001-2017
</metadata>
<g transform="translate(0.000000,260.000000) scale(0.100000,-0.100000)"
fill="#000000" stroke="none">
<path d="M0 1300 l0 -1300 1300 0 1300 0 0 1300 0 1300 -1300 0 -1300 0 0
-1300z m1422 781 c106 -22 156 -47 241 -122 123 -108 116 -178 -28 -300 -102
-86 -122 -88 -185 -24 -31 31 -60 50 -94 60 -45 14 -52 13 -94 -5 -37 -17 -51
-18 -81 -9 -20 6 -45 17 -56 25 -20 15 -20 15 0 52 12 21 41 49 69 67 43 26
59 30 120 30 74 0 146 -26 183 -67 22 -24 40 -23 75 7 l30 26 -40 37 c-58 54
-135 77 -252 77 -87 0 -100 -3 -150 -30 -38 -21 -69 -49 -102 -93 -55 -72 -62
-111 -25 -135 29 -19 267 -127 279 -127 34 0 263 -118 321 -165 187 -152 204
-491 36 -713 -29 -39 -114 -101 -176 -129 -52 -24 -70 -27 -173 -28 -122 0
-156 8 -278 70 -60 30 -171 129 -203 182 -17 27 -20 44 -16 80 4 42 13 54 93
134 128 128 165 136 227 55 70 -92 141 -130 209 -113 26 6 44 19 55 38 20 34
33 35 91 9 27 -12 42 -26 42 -37 0 -39 -80 -136 -127 -154 -13 -5 -58 -9 -100
-9 -89 0 -139 23 -211 97 -28 29 -47 41 -56 36 -36 -22 -77 -65 -73 -77 9 -22
88 -82 157 -117 63 -33 69 -34 180 -34 108 0 118 2 168 29 64 34 114 92 150
171 24 52 25 59 11 83 -15 27 -77 67 -121 77 -15 4 -49 17 -75 29 -26 13 -77
34 -113 46 -36 13 -69 27 -75 31 -5 4 -30 12 -54 19 -44 12 -150 72 -206 118
-28 23 -96 128 -109 169 -3 10 -10 51 -16 92 -12 83 1 221 24 256 7 11 18 36
25 56 15 48 109 150 168 185 42 25 165 60 219 63 12 0 64 -8 116 -18z"/>
<path d="M1010 1497 c0 -27 59 -96 112 -130 57 -37 96 -56 168 -80 95 -33 136
-49 177 -67 24 -11 46 -20 50 -20 5 -1 26 -9 48 -20 61 -29 69 -26 45 20 -20
39 -90 100 -116 100 -7 0 -14 3 -16 8 -3 8 -139 72 -154 72 -5 1 -27 9 -49 20
-22 11 -44 19 -48 20 -10 0 -88 35 -149 66 -54 27 -68 30 -68 11z"/>
</g>
</svg>
